<svg xmlns="http://www.w3.org/2000/svg" xmlns:xlink="http://www.w3.org/1999/xlink" x="0" y="0" width="662" height="237" style="
        width:662px;
        height:237px;
        background: #FFF;
        fill: none;
">
        
        
        <svg xmlns="http://www.w3.org/2000/svg" class="role-diagram-draw-area"><g class="shapes-region" style="stroke: black; fill: none;"><g class="arrow-line"><path class="connection real" stroke-dasharray="" d="  M143,32.85 L143,176" style="stroke: rgb(0, 0, 0); stroke-width: 1px; fill: none; fill-opacity: 1;"/></g><g class="arrow-line"><path class="connection real" stroke-dasharray="" d="  M442,176 L143,176" style="stroke: rgb(0, 0, 0); stroke-width: 1px; fill: none; fill-opacity: 1;"/></g><g class="arrow-line"><path class="connection real" stroke-dasharray="" d="  M143,176 C148.91,123.37 202.05,49.43 224,45.85 C269,48.85 259,155.85 303.39,138.93 C318.16,130.7 343.56,59.15 356,62.85 C384.52,71.32 415.41,174.94 442,176" style="stroke: rgb(0, 0, 0); stroke-width: 1px; fill: none; fill-opacity: 1;"/></g><g class="arrow-line"><path class="connection real" stroke-dasharray="1.125 3.35" d="  M143,71 L456,71" style="stroke: rgb(0, 0, 0); stroke-width: 1px; fill: none; fill-opacity: 1;"/></g><g class="composite-shape"><path class="real" d=" M195,71 L252,71 L252,175.85 L195,175.85 Z" style="stroke-width: 2px; stroke: rgb(208, 2, 27); fill: none; fill-opacity: 1; stroke-dasharray: 2.25px, 3.685px; stroke-opacity: 1;"/></g><g class="composite-shape"><path class="real" d=" M348,69.85 L366,69.85 L366,175.85 L348,175.85 Z" style="stroke-width: 2px; stroke: rgb(208, 2, 27); stroke-opacity: 1; fill: none; fill-opacity: 1; stroke-dasharray: 2.25px, 3.685px;"/></g><g class="arrow-line"><path class="connection real" stroke-dasharray="1.125 3.35" d="  M144,109 L457,109" style="stroke: rgb(0, 0, 0); stroke-width: 1px; fill: none; fill-opacity: 1;"/></g><g class="arrow-line"><path class="connection real" stroke-dasharray="1.125 3.35" d="  M144,144 L457,144" style="stroke: rgb(0, 0, 0); stroke-width: 1px; fill: none; fill-opacity: 1;"/></g><g class="composite-shape"><path class="real" d=" M169,109 L195,109 L195,175.85 L169,175.85 Z" style="stroke-width: 2px; stroke: rgb(74, 144, 226); fill: none; fill-opacity: 1; stroke-dasharray: 2.25px, 3.685px; stroke-opacity: 1;"/></g><g class="composite-shape"><path class="real" d=" M252,109 L268,109 L268,175.85 L252,175.85 Z" style="stroke-width: 2px; stroke: rgb(74, 144, 226); stroke-opacity: 1; fill: none; fill-opacity: 1; stroke-dasharray: 2.25px, 3.685px;"/></g><g class="composite-shape"><path class="real" d=" M324,109 L348,109 L348,175.85 L324,175.85 Z" style="stroke-width: 2px; stroke: rgb(74, 144, 226); stroke-opacity: 1; fill: none; fill-opacity: 1; stroke-dasharray: 2.25px, 3.685px;"/></g><g class="composite-shape"><path class="real" d=" M366,109 L393,109 L393,175.85 L366,175.85 Z" style="stroke-width: 2px; stroke: rgb(74, 144, 226); stroke-opacity: 1; fill: none; fill-opacity: 1; stroke-dasharray: 2.25px, 3.685px;"/></g><g class="composite-shape"><path class="real" d=" M153,144 L169,144 L169,175.85 L153,175.85 Z" style="stroke-width: 2px; stroke: rgb(144, 19, 254); stroke-opacity: 1; fill: none; fill-opacity: 1; stroke-dasharray: 2.25px, 3.685px;"/></g><g class="composite-shape"><path class="real" d=" M268,144 L323,144 L323,175.85 L268,175.85 Z" style="stroke-width: 2px; stroke: rgb(144, 19, 254); stroke-opacity: 1; fill: none; fill-opacity: 1; stroke-dasharray: 2.25px, 3.685px;"/></g><g class="composite-shape"><path class="real" d=" M393,144 L413,144 L413,175.85 L393,175.85 Z" style="stroke-width: 2px; stroke: rgb(144, 19, 254); stroke-opacity: 1; fill: none; fill-opacity: 1; stroke-dasharray: 2.25px, 3.685px;"/></g><g/></g><g/><g/><g/></svg>
        <svg xmlns="http://www.w3.org/2000/svg" xmlns:xlink="http://www.w3.org/1999/xlink" width="660" height="235" style="width:660px;height:235px;font-family:Asana-Math, Asana;background:#FFF;"></svg>
</svg>
